<svg width="140" height="97" viewBox="0 0 140 97" fill="none" xmlns="http://www.w3.org/2000/svg">
<path d="M31.912 96.28C25.6827 96.28 20.2213 95.128 15.528 92.824C10.8347 90.4347 7.16533 87.1494 4.51999 82.968C1.95999 78.7014 0.679993 73.752 0.679993 68.12V28.44C0.679993 22.7227 1.95999 17.7734 4.51999 13.592C7.16533 9.41069 10.8347 6.16802 15.528 3.86403C20.2213 1.4747 25.6827 0.280029 31.912 0.280029C38.2267 0.280029 43.688 1.4747 48.296 3.86403C52.9893 6.16802 56.616 9.41069 59.176 13.592C61.8213 17.7734 63.144 22.7227 63.144 28.44H43.944C43.944 24.6854 42.8773 21.8267 40.744 19.864C38.696 17.9014 35.752 16.92 31.912 16.92C28.072 16.92 25.0853 17.9014 22.952 19.864C20.904 21.8267 19.88 24.6854 19.88 28.44V68.12C19.88 71.7894 20.904 74.648 22.952 76.696C25.0853 78.6587 28.072 79.64 31.912 79.64C35.752 79.64 38.696 78.6587 40.744 76.696C42.8773 74.648 43.944 71.7894 43.944 68.12V60.056H30.12V43.8H63.144V68.12C63.144 73.752 61.8213 78.7014 59.176 82.968C56.616 87.1494 52.9893 90.4347 48.296 92.824C43.688 95.128 38.2267 96.28 31.912 96.28Z" fill="url(#paint0_linear_4_3)"/>
<path d="M108.662 96.28C102.433 96.28 96.9713 95.128 92.278 92.824C87.5847 90.4347 83.9153 87.1494 81.27 82.968C78.71 78.7014 77.43 73.752 77.43 68.12V28.44C77.43 22.7227 78.71 17.7734 81.27 13.592C83.9153 9.41069 87.5847 6.16802 92.278 3.86403C96.9713 1.4747 102.433 0.280029 108.662 0.280029C114.977 0.280029 120.438 1.4747 125.046 3.86403C129.739 6.16802 133.366 9.41069 135.926 13.592C138.571 17.7734 139.894 22.7227 139.894 28.44H120.694C120.694 24.6854 119.627 21.8267 117.494 19.864C115.446 17.9014 112.502 16.92 108.662 16.92C104.822 16.92 101.835 17.9014 99.702 19.864C97.654 21.8267 96.63 24.6854 96.63 28.44V68.12C96.63 71.7894 97.654 74.648 99.702 76.696C101.835 78.6587 104.822 79.64 108.662 79.64C112.502 79.64 115.446 78.6587 117.494 76.696C119.627 74.648 120.694 71.7894 120.694 68.12V60.056H106.87V43.8H139.894V68.12C139.894 73.752 138.571 78.7014 135.926 82.968C133.366 87.1494 129.739 90.4347 125.046 92.824C120.438 95.128 114.977 96.28 108.662 96.28Z" fill="url(#paint1_linear_4_3)"/>
<defs>
<linearGradient id="paint0_linear_4_3" x1="8" y1="12" x2="143.5" y2="95" gradientUnits="userSpaceOnUse">
<stop stop-color="#FFDCAA"/>
<stop offset="1" stop-color="#FFAE3C"/>
</linearGradient>
<linearGradient id="paint1_linear_4_3" x1="8" y1="12" x2="143.5" y2="95" gradientUnits="userSpaceOnUse">
<stop stop-color="#FFDCAA"/>
<stop offset="1" stop-color="#FFAE3C"/>
</linearGradient>
</defs>
</svg>
